<?xml version="1.0" encoding="utf-8"?>
<!-- Generator: Adobe Illustrator 27.3.1, SVG Export Plug-In . SVG Version: 6.00 Build 0)  -->
<svg version="1.1" id="Dental_sciences" xmlns="http://www.w3.org/2000/svg" xmlns:xlink="http://www.w3.org/1999/xlink" x="0px"
	 y="0px" viewBox="0 0 24 24" style="enable-background:new 0 0 24 24;" xml:space="preserve">
<style type="text/css">
	.st0{opacity:0.15;fill:#9473A5;}
	.st1{opacity:0.6;fill:#9473A5;}
	.st2{fill:#9473A5;}
	.st3{fill:#F2F2F2;}
	.st4{fill:#FFFFFF;}
	.st5{fill:none;}
</style>
<circle id="Ellipse_699" class="st0" cx="10" cy="10" r="10"/>
<g id="Group_1292" transform="translate(187.268 -40.826)">
	<path id="Path_2800" class="st1" d="M-171.5,42.8L-171.5,42.8c-0.7,0-1.4,0.1-2,0.4l0,0c-1.1,0.5-2.4,0.5-3.5,0l0,0
		c-0.6-0.3-1.3-0.4-2-0.4l0,0c-2.8,0-5.2,2.3-5.2,5.1l0,0c0,2.2,0.6,4.3,1.8,6.2l0.1,0.2l1.7,7.4c0.2,0.6,0.7,1.1,1.4,1.1l0,0
		c0.7,0,1.3-0.5,1.4-1.2l1.2-6.9c0.1-0.7,0.7-1.1,1.4-1.1l0,0c0.7,0,1.2,0.5,1.4,1.1l1.2,6.9c0.1,0.7,0.7,1.2,1.4,1.2l0,0
		c0.7,0,1.2-0.4,1.4-1.1l1.7-7.4l0.1-0.2c1.2-1.9,1.8-4,1.8-6.2l0,0C-166.3,45.1-168.6,42.8-171.5,42.8L-171.5,42.8L-171.5,42.8z"/>
	<path id="Path_2801" class="st2" d="M-170.1,43c-2.3,7.7-8.6,11.2-11.9,12.5l1.4,6.2c0.2,0.8,0.9,1.2,1.7,1.1
		c0.6-0.1,1-0.6,1.1-1.1l1.2-6.9c0.1-0.7,0.8-1.2,1.6-1.1c0.6,0.1,1,0.5,1.1,1.1l1.2,6.9c0.1,0.8,0.9,1.3,1.6,1.2
		c0.6-0.1,1-0.5,1.2-1.1l1.7-7.4l0.1-0.2c1.2-1.9,1.8-4,1.8-6.2C-166.3,45.6-167.9,43.6-170.1,43z"/>
	<path id="Path_2802" class="st3" d="M-182.3,47.8c-0.1-1.2,0.7-2.3,1.9-2.7"/>
	<path id="Path_2803" class="st4" d="M-182.3,48.6c-0.3,0-0.5-0.2-0.6-0.5c-0.1-1.5,0.9-2.8,2.3-3.3c0.3-0.1,0.6,0.1,0.7,0.4l0,0
		c0.1,0.3-0.1,0.6-0.4,0.7c-0.9,0.3-1.5,1.2-1.5,2.1C-181.7,48.3-182,48.6-182.3,48.6L-182.3,48.6z"/>
	<circle id="Ellipse_521" class="st4" cx="-178.7" cy="44.8" r="0.5"/>
</g>
<rect id="Rectangle_1254" y="0" class="st5" width="24" height="24"/>
</svg>
