<?xml version="1.0" encoding="utf-8"?>
<!-- Generator: Adobe Illustrator 27.3.1, SVG Export Plug-In . SVG Version: 6.00 Build 0)  -->
<svg version="1.1" id="Dermatology" xmlns="http://www.w3.org/2000/svg" xmlns:xlink="http://www.w3.org/1999/xlink" x="0px"
	 y="0px" viewBox="0 0 24 24" style="enable-background:new 0 0 24 24;" xml:space="preserve">
<style type="text/css">
	.st0{opacity:0.15;fill:#9473A5;}
	.st1{fill:#4D4E59;}
	.st2{fill:none;}
	.st3{opacity:0.4;fill:#9473A5;}
	.st4{fill:#606060;}
	.st5{opacity:0.7;fill:#9473A5;}
	.st6{fill:#484B53;}
	.st7{fill:#9473A5;}
</style>
<circle id="Ellipse_700" class="st0" cx="10" cy="10" r="10"/>
<path id="Path_2845" class="st1" d="M4.3,18.3L4.3,18.3L4.3,18.3L4.3,18.3z"/>
<path id="Path_2846" class="st2" d="M6.5,20.4L6.5,20.4L6,20.1l0,0c-0.2-0.2-0.4-0.4-0.6-0.6c-0.1-0.2-0.3-0.3-0.4-0.5
	c-0.1-0.1-0.1-0.2-0.2-0.2c-0.1-0.1-0.2-0.3-0.2-0.4c0,0-0.1-0.1-0.1-0.2c-0.1-0.2-0.1-0.3-0.2-0.5c0,0,0-0.1-0.1-0.1
	c-0.1-0.3-0.2-0.6-0.2-0.9c0-0.1,0-0.1,0-0.2c0-0.3,0-0.5,0-0.8c0-0.1,0-0.1,0-0.2c0-0.3,0-0.6,0.1-0.9c0,0,0-0.1,0-0.1
	c0.1-0.3,0.1-0.5,0.2-0.8c0-0.1,0.1-0.2,0.1-0.2c0.1-0.3,0.3-0.6,0.4-0.8l0,0c0.6-0.9,0.9-1.9,0.9-3V7.3c-0.1-2.8,2.2-5.2,5-5.3H4
	v20h0.8C5.2,21.3,5.8,20.8,6.5,20.4z"/>
<path id="Path_2847" class="st2" d="M19.7,17.6c-0.1,0.3-0.2,0.6-0.4,0.8c0,0-0.1,0.1-0.1,0.1c-0.1,0.2-0.3,0.5-0.5,0.7
	c0,0,0,0.1-0.1,0.1c-0.2,0.3-0.4,0.5-0.7,0.7l-0.4,0.4c0.7,0.3,1.3,0.9,1.7,1.6H20v-6.2C20,16.4,19.9,17,19.7,17.6
	C19.7,17.5,19.7,17.6,19.7,17.6z"/>
<path id="Path_2848" class="st2" d="M14.3,2.1c0.3,0.1,0.5,0.1,0.8,0.3c0.1,0,0.1,0.1,0.2,0.1s0.1,0.1,0.2,0.1c0,0,0.1,0,0.1,0.1
	c1.7,0.9,2.7,2.7,2.7,4.6v0c0,0,0,0.1,0,0.1v2.1c0,0.6,0.1,1.1,0.2,1.7c0,0.1,0.1,0.2,0.1,0.3c0,0.1,0,0.1,0.1,0.2
	c0.1,0.2,0.2,0.4,0.3,0.6c0,0,0,0,0,0.1c0.4,0.5,0.6,1.1,0.8,1.7c0,0.1,0.1,0.3,0.1,0.4c0,0,0,0.1,0,0.1c0.1,0.3,0.1,0.6,0.1,0.9v0
	c0,0,0,0.1,0,0.1V2h-6.8c0.3,0,0.6,0,0.9,0.1C14.2,2.1,14.2,2.1,14.3,2.1z"/>
<path id="Path_2877" class="st3" d="M17.6,20.4l0.4-0.4c0.3-0.2,0.5-0.5,0.7-0.7c-0.2,0.3-0.4,0.5-0.7,0.7l0,0L17.6,20.4
	c-0.5-0.2-1-0.4-1.5-0.4c-1.2,0-2.1-1-2.1-2.2v-0.4l0,0l0,0h0l0,0c0,0.3,0,0.6,0.1,0.9c-1.3,0.6-2.7,0.6-3.9,0c0,0,0,0,0-0.1
	c-0.2,1-1,1.7-2,1.7c-0.5,0-1.1,0.1-1.5,0.3l0,0c-0.7,0.3-1.3,0.9-1.7,1.6h14.4C18.8,21.3,18.3,20.8,17.6,20.4z"/>
<path id="Path_2882" class="st3" d="M14.7,17.1c0.1-0.1,0.2-0.1,0.2-0.2c0.2-0.1,0.3-0.3,0.5-0.4c0.1-0.1,0.1-0.1,0.2-0.2
	c0.2-0.2,0.4-0.4,0.5-0.7c0,0,0,0,0,0c0.2-0.3,0.3-0.5,0.4-0.8c0-0.1,0.1-0.1,0.1-0.2c0.1-0.2,0.2-0.5,0.2-0.7c0-0.1,0-0.1,0-0.2
	c0.1-0.3,0.1-0.6,0.1-1v-2.5c0-0.2-0.2-0.4-0.4-0.4C15.7,9.7,15,9,14.9,8.2c0-0.1,0-0.1-0.1-0.1c0,0,0,0,0,0c0,0-0.1-0.1-0.1-0.1
	c0,0,0,0-0.1,0c0,0-0.1,0-0.1,0c0,0-0.1,0-0.1,0c0,0,0,0-0.1,0c0,0-0.1,0-0.1,0.1c-1,0.7-2.2,1.3-3.4,1.6c-1,0.3-2,0.3-3.1,0.3
	c0.1,0,0.2,0,0.3,0c0.4,0,0.8,0.4,0.7,0.8v1.2c0,1.7,0.8,3.3,2.2,4.3l0,0c0.4,0.3,0.5,0.7,0.2,1.1c-0.2,0.3-0.5,0.4-0.8,0.3
	c1.1,0.4,2.3,0.3,3.4-0.1l0,0h0c0.1,0,0.1-0.1,0.2-0.1C14.3,17.3,14.5,17.2,14.7,17.1z"/>
<path id="Path_2889" class="st4" d="M4.6,18.3c0.1,0.2,0.2,0.3,0.2,0.4C4.8,18.6,4.7,18.4,4.6,18.3L4.6,18.3z"/>
<path id="Path_2890" class="st4" d="M5.4,19.5c-0.1-0.2-0.3-0.3-0.4-0.5C5.1,19.1,5.3,19.3,5.4,19.5z"/>
<path id="Path_2891" class="st4" d="M19.3,18.4c0,0-0.1,0.1-0.1,0.1C19.3,18.5,19.3,18.5,19.3,18.4z"/>
<path id="Path_2892" class="st4" d="M18.9,12.3C18.9,12.3,18.9,12.3,18.9,12.3C18.9,12.3,18.9,12.3,18.9,12.3z"/>
<path id="Path_2893" class="st4" d="M18.8,19.3C18.7,19.3,18.7,19.3,18.8,19.3C18.7,19.3,18.7,19.3,18.8,19.3z"/>
<path id="Path_2894" class="st4" d="M6,20.1l0.4,0.4l0,0C6.3,20.3,6.1,20.2,6,20.1L6,20.1z"/>
<path id="Path_2895" class="st4" d="M18.6,11.5c0,0.1,0,0.1,0.1,0.2C18.6,11.6,18.6,11.5,18.6,11.5z"/>
<path id="Path_2896" class="st4" d="M18.2,9.5V7.4C18.2,8.1,18.2,8.8,18.2,9.5z"/>
<path id="Path_2897" class="st4" d="M7.1,10c0,0,0-0.1,0.1-0.1l0,0c0,0,0.1,0,0.1-0.1c0,0,0,0,0,0c0,0,0.1,0,0.1,0c0,0,0,0,0.1,0h0
	c0,0,0.1,0,0.1,0c1.1,0.1,2.2,0,3.3-0.3c1.2-0.3,2.4-0.8,3.4-1.6c0,0,0.1,0,0.1-0.1c0,0,0,0,0,0c0,0,0,0,0.1,0c0,0,0.1,0,0.1,0
	c0,0,0.1,0,0.1,0c0,0,0,0,0.1,0c0,0,0.1,0,0.1,0.1c0,0,0,0,0,0s0,0,0,0c0,0,0,0.1,0.1,0.1C15,9,15.7,9.7,16.6,9.7
	c0.2,0,0.4,0.2,0.4,0.4v2.5c0,0.3,0,0.7-0.1,1c0,0.1,0,0.1,0,0.2c-0.1,0.2-0.1,0.5-0.2,0.7c0,0.1-0.1,0.1-0.1,0.2
	c-0.1,0.3-0.3,0.6-0.4,0.8c0,0,0,0,0,0c-0.2,0.2-0.3,0.5-0.5,0.7c-0.1,0.1-0.1,0.1-0.2,0.2c-0.1,0.1-0.3,0.3-0.5,0.4
	c-0.1,0.1-0.2,0.1-0.2,0.2c-0.2,0.1-0.4,0.2-0.6,0.3c-0.1,0-0.1,0.1-0.2,0.1l0,0l0,0v0.4c0,1.2,0.9,2.2,2.1,2.2
	c0.5,0,1.1,0.1,1.5,0.4l0.4-0.4l0,0c0.3-0.2,0.5-0.5,0.7-0.7c0,0,0.1-0.1,0.1-0.1c0.2-0.2,0.3-0.5,0.5-0.7c0,0,0.1-0.1,0.1-0.1
	c0.1-0.3,0.3-0.5,0.4-0.8c0,0,0,0,0-0.1c0.2-0.6,0.3-1.3,0.3-2v0c0-0.3,0-0.6-0.1-0.9c0,0,0-0.1,0-0.1c-0.1-0.7-0.4-1.3-0.8-1.9
	C19,12.5,19,12.4,19,12.3c0,0,0,0,0-0.1c-0.1-0.2-0.2-0.4-0.3-0.6c0-0.1,0-0.1-0.1-0.2c-0.2-0.6-0.3-1.3-0.3-1.9V9.5
	c-0.1-0.7-0.1-1.4,0-2.1V7.3l0,0c0-1.9-1-3.7-2.7-4.6c0.2,0.2,0.2,0.4,0.1,0.7c-0.1,0.2-0.3,0.3-0.5,0.3c-0.2,0-0.3,0-0.5,0h-2.4
	C9.4,3.7,7.2,6,7.3,8.9v0.6C7.3,9.8,7.1,9.9,7.1,10C7,10.1,7,10.1,7.1,10L7.1,10z"/>
<path id="Path_2898" class="st4" d="M10,18.4C10,18.3,10,18.3,10,18.4c0-0.2,0-0.3,0-0.5v-0.4l0,0l0,0c0,0-0.1,0-0.1-0.1
	s-0.1-0.1-0.2-0.1c-0.1,0-0.2-0.1-0.2-0.1s-0.2-0.1-0.3-0.2C9.3,17,9.2,17,9.1,17S9,16.9,8.9,16.8c-0.1-0.1-0.2-0.2-0.3-0.3
	c0,0-0.1,0-0.1-0.1s-0.1,0-0.1-0.1c0,0-0.1-0.1-0.1-0.1c-0.1-0.1-0.1-0.2-0.2-0.3c-0.1-0.1-0.2-0.2-0.2-0.3l0,0l0,0
	c-0.1-0.1-0.1-0.2-0.1-0.3c-0.1-0.1-0.1-0.3-0.2-0.4c0-0.1,0-0.1-0.1-0.2s0-0.1-0.1-0.2c0-0.1-0.1-0.2-0.1-0.4S7.2,14,7.2,13.9
	c0-0.1,0-0.1,0-0.2s0-0.1,0-0.2C7,13.2,7,13,7,12.7v-0.4c0,0.2,0,0.4,0,0.6c-0.4,1.2-0.9,1.4-1.3,2.7c-0.2,0.7-0.3,1.5-0.2,2.2
	c0,0.3-0.2,0.6-0.5,0.6c-0.2,0-0.3-0.1-0.4-0.2c0.1,0.1,0.2,0.3,0.2,0.4C4.9,18.8,5,18.9,5,19c0.1,0.2,0.2,0.3,0.4,0.5
	c0.2,0.2,0.4,0.4,0.6,0.6c0.1,0.1,0.3,0.3,0.5,0.4c0.5-0.2,1-0.4,1.5-0.3C9,20.1,9.9,19.3,10,18.4z"/>
<path id="Path_2899" class="st4" d="M7,10.2C7,10.2,7,10.2,7,10.2c0,0.1,0,0.1,0,0.1C7,10.3,7,10.2,7,10.2z"/>
<path id="Path_2900" class="st4" d="M16.6,14.6c0,0.1-0.1,0.1-0.1,0.2C16.6,14.7,16.6,14.7,16.6,14.6z"/>
<path id="Path_2901" class="st4" d="M16.1,15.6C16.1,15.6,16.1,15.6,16.1,15.6C16.1,15.6,16.1,15.6,16.1,15.6z"/>
<path id="Path_2902" class="st4" d="M14.5,7.9C14.6,7.9,14.6,7.9,14.5,7.9C14.6,7.9,14.6,7.9,14.5,7.9z"/>
<path id="Path_2903" class="st4" d="M16.9,13.7c0,0.1,0,0.1,0,0.2C16.9,13.8,16.9,13.7,16.9,13.7z"/>
<path id="Path_2904" class="st4" d="M8.5,16.5C8.5,16.4,8.5,16.4,8.5,16.5C8.5,16.4,8.5,16.4,8.5,16.5z"/>
<path id="Path_2905" class="st4" d="M10.1,17.5c0,0-0.1,0-0.1-0.1C10,17.5,10,17.5,10.1,17.5z"/>
<path id="Path_2906" class="st4" d="M7.9,15.6L7.9,15.6z"/>
<path id="Path_2907" class="st4" d="M14.7,7.9C14.7,8,14.7,8,14.7,7.9C14.7,8,14.7,8,14.7,7.9z"/>
<path id="Path_2908" class="st4" d="M14.4,7.9C14.4,7.9,14.4,7.9,14.4,7.9C14.4,7.9,14.4,7.9,14.4,7.9z"/>
<path id="Path_2909" class="st4" d="M7.4,14.6c0,0.1,0,0.1,0.1,0.2C7.4,14.7,7.4,14.7,7.4,14.6L7.4,14.6z"/>
<path id="Path_2910" class="st4" d="M9.1,17c0.1,0,0.1,0.1,0.2,0.1C9.3,17.1,9.2,17,9.1,17C9.2,17,9.1,17,9.1,17z"/>
<path id="Path_2911" class="st4" d="M7.1,13.7c0,0.1,0,0.1,0,0.2C7.1,13.8,7.1,13.8,7.1,13.7C7.1,13.7,7.1,13.7,7.1,13.7z"/>
<path id="Path_2912" class="st4" d="M13.9,17.5c0.1,0,0.1-0.1,0.2-0.1C14,17.5,14,17.5,13.9,17.5z"/>
<path id="Path_2913" class="st4" d="M16.6,9.7C15.7,9.7,15,9,14.9,8.2c0,0,0-0.1-0.1-0.1c0,0,0,0,0,0c0,0,0.1,0.1,0.1,0.1
	C15,9,15.7,9.7,16.6,9.7z"/>
<path id="Path_2914" class="st4" d="M10.9,9.5C9.8,9.8,8.7,9.9,7.6,9.8c0.1,0,0.2,0,0.2,0C8.8,9.9,9.9,9.8,10.9,9.5z"/>
<path id="Path_2915" class="st4" d="M15.6,16.3c-0.1,0.1-0.1,0.1-0.2,0.2C15.5,16.4,15.5,16.4,15.6,16.3z"/>
<path id="Path_2916" class="st4" d="M14.9,16.9c-0.1,0.1-0.2,0.1-0.2,0.2C14.8,17,14.8,17,14.9,16.9z"/>
<path id="Path_2917" class="st5" d="M10.5,17.6c0,0-0.1,0-0.1,0c0,0-0.1,0-0.1,0c-0.1,0-0.1,0-0.2-0.1l0,0c0,0.2,0,0.5,0,0.7
	c0,0,0,0.1,0,0.1s0,0,0,0.1c1.3,0.6,2.7,0.6,3.9,0c-0.1-0.3-0.1-0.6-0.1-0.9l0,0c-0.6,0.3-1.2,0.4-1.9,0.4
	C11.5,17.9,11,17.8,10.5,17.6z"/>
<path id="Path_2922" class="st1" d="M7,10.4c0,0,0-0.1,0-0.1v2v-0.1V10.4z"/>
<path id="Path_2924" class="st1" d="M7,10.2L7,10.2C7,10.1,7,10.1,7,10.2C7,10.1,7,10.1,7,10.2z"/>
<path id="Path_2926" class="st6" d="M5.8,7.3v2.3c0,1.1-0.3,2.1-0.9,3c0,0,0,0.1,0,0.1c-0.1,0.2-0.3,0.5-0.4,0.7
	c0,0.1-0.1,0.2-0.1,0.3c-0.1,0.2-0.1,0.4-0.2,0.6c0,0.1,0,0.2-0.1,0.3C4.1,14.9,4,15.1,4,15.4c0,0.1,0,0.2,0,0.3c0,0.2,0,0.4,0,0.6
	c0,0.1,0,0.2,0,0.3c0,0.3,0.1,0.5,0.2,0.8c0,0.1,0.1,0.2,0.1,0.3c0.1,0.2,0.1,0.3,0.2,0.5l0,0c0.1,0.1,0.3,0.2,0.4,0.2
	c0.3,0,0.5-0.3,0.5-0.6c-0.1-0.7,0-1.5,0.2-2.2c0.4-1.3,0.9-1.5,1.3-2.7c0-0.2,0-0.4,0-0.6v-2c0,0,0-0.1,0-0.1c0,0,0,0,0,0v0
	c0,0,0,0,0-0.1c0.1-0.2,0.2-0.2,0.2-0.6V8.9c-0.1-2.8,2.2-5.2,5-5.3h2.4c0.2,0,0.3,0,0.5,0c0.2,0,0.4-0.1,0.5-0.3
	c0.1-0.2,0.1-0.5-0.1-0.7c-0.1-0.1-0.2-0.1-0.3-0.2c-0.1,0-0.1,0-0.2-0.1c-0.3-0.1-0.5-0.2-0.8-0.3c0,0-0.1,0-0.1,0
	C13.8,2,13.5,2,13.2,2h-2.4C7.9,2.1,5.7,4.4,5.8,7.3C5.8,7.3,5.8,7.3,5.8,7.3z"/>
<path id="Path_2927" class="st5" d="M9.4,17.1c0.1,0,0.1,0.1,0.2,0.1c0.1,0,0.2,0.1,0.2,0.1l0.1,0C9.7,17.3,9.6,17.2,9.4,17.1z"/>
<path id="Path_2928" class="st5" d="M7,12.7v-0.5v0V12.7c0,0.3,0,0.5,0.1,0.8c0,0.1,0,0.1,0,0.2C7.1,13.4,7,13,7,12.7z"/>
<path id="Path_2929" class="st5" d="M7,10.2C7,10,7.1,9.9,7.2,9.8l0,0c0,0-0.1,0-0.1,0.1l0,0c0,0-0.1,0.1-0.1,0.1v0
	C7,10.1,7,10.1,7,10.2l0,0.2c0,0,0,0.1,0,0.1L7,10.2z"/>
<path id="Path_2930" class="st5" d="M7.5,14.8c0,0.1,0,0.1,0.1,0.2c0.1,0.1,0.1,0.3,0.2,0.4c0,0.1,0.1,0.1,0.1,0.2
	C7.7,15.3,7.6,15.1,7.5,14.8z"/>
<path id="Path_2931" class="st5" d="M8.6,16.5L8.6,16.5c0.1,0.1,0.2,0.2,0.3,0.3c0.1,0,0.1,0.1,0.2,0.1C8.9,16.8,8.8,16.6,8.6,16.5z
	"/>
<path id="Path_2932" class="st5" d="M7.9,15.6L7.9,15.6C8,15.8,8.1,15.9,8.1,16c0.1,0.1,0.1,0.2,0.2,0.3c0,0,0,0,0.1,0.1
	C8.2,16.1,8,15.9,7.9,15.6z"/>
<path id="Path_2933" class="st5" d="M7.4,9.8L7.4,9.8C7.3,9.8,7.3,9.8,7.4,9.8L7.4,9.8C7.3,9.8,7.3,9.8,7.4,9.8z"/>
<path id="Path_2934" class="st5" d="M7.2,13.9c0,0.1,0,0.3,0.1,0.4s0.1,0.2,0.1,0.4C7.3,14.4,7.2,14.1,7.2,13.9z"/>
<path id="Path_2935" class="st5" d="M7.4,9.8C7.3,9.8,7.3,9.8,7.4,9.8c-0.1,0-0.1,0-0.1,0C7.1,9.9,7,10,7,10.2v0.3
	c0,0.6,0,1.1,0,1.7v0.5c0,0.3,0,0.7,0.1,1c0,0,0,0,0,0.1c0,0,0,0.1,0,0.1c0.1,0.3,0.1,0.5,0.2,0.7l0,0c0,0.1,0,0.1,0.1,0.2
	c0.1,0.3,0.2,0.5,0.4,0.7c0,0,0,0.1,0,0.1c0.2,0.2,0.3,0.5,0.5,0.7c0.1,0.1,0.1,0.1,0.2,0.2c0.2,0.2,0.3,0.3,0.5,0.4L9.2,17
	c0.1,0.1,0.1,0.1,0.2,0.2c0.1,0.1,0.3,0.2,0.4,0.3c0.1,0.1,0.2,0.1,0.4,0.2c0.1,0,0.2,0.1,0.3,0.1c0.3,0.1,0.6-0.1,0.8-0.3
	c0.2-0.4,0.1-0.9-0.2-1.1l0,0c-1.4-1-2.2-2.6-2.2-4.3v-1.2c0-0.4-0.3-0.8-0.7-0.8c-0.1,0-0.2,0-0.3,0S7.6,9.8,7.4,9.8
	C7.4,9.8,7.4,9.8,7.4,9.8z"/>
<path id="Path_2936" class="st5" d="M7.1,10L7.1,10L7.1,10z"/>
<path id="Path_2937" class="st5" d="M7.4,9.8L7.4,9.8c0.1,0,0.1,0,0.1,0C7.5,9.8,7.5,9.8,7.4,9.8L7.4,9.8C7.4,9.8,7.4,9.8,7.4,9.8
	L7.4,9.8C7.4,9.8,7.4,9.8,7.4,9.8z"/>
<path id="Path_2938" class="st5" d="M7.3,9.8L7.3,9.8C7.3,9.8,7.2,9.8,7.3,9.8L7.3,9.8L7.3,9.8z"/>
<path id="Path_2939" class="st5" d="M7.1,9.9L7.1,9.9L7.1,9.9z"/>
<path id="Path_2940" class="st5" d="M8.5,16.5C8.6,16.5,8.6,16.5,8.5,16.5L8.5,16.5C8.6,16.5,8.6,16.5,8.5,16.5z"/>
<path id="Path_2941" class="st5" d="M8.9,16.8C9,16.8,9.1,16.9,9.1,17c0,0,0,0,0,0C9,16.9,9,16.8,8.9,16.8z"/>
<path id="Path_2942" class="st5" d="M7.2,14.3c0,0.1,0.1,0.2,0.1,0.4v0C7.3,14.5,7.3,14.4,7.2,14.3z"/>
<path id="Path_2943" class="st5" d="M8.4,16.3c0,0,0.1,0.1,0.1,0.1C8.5,16.4,8.4,16.3,8.4,16.3C8.4,16.3,8.4,16.3,8.4,16.3z"/>
<path id="Path_2944" class="st5" d="M7.7,15.4c-0.1-0.1-0.1-0.3-0.2-0.4C7.6,15.1,7.7,15.2,7.7,15.4z"/>
<path id="Path_2945" class="st5" d="M9.8,17.4c-0.1,0-0.2-0.1-0.2-0.1C9.6,17.3,9.7,17.3,9.8,17.4z"/>
<path id="Path_2946" class="st5" d="M7.1,13.5c0,0.1,0,0.1,0,0.2v0C7.1,13.6,7.1,13.6,7.1,13.5z"/>
<path id="Path_2947" class="st5" d="M8.1,16c-0.1-0.1-0.2-0.2-0.2-0.3C8,15.8,8.1,15.9,8.1,16z"/>
<path id="Path_2948" class="st5" d="M7.2,9.8C7.3,9.8,7.3,9.8,7.2,9.8L7.2,9.8z"/>
<path id="Path_2949" class="st5" d="M8.4,16.3C8.4,16.3,8.5,16.4,8.4,16.3c0.1,0.1,0.1,0.1,0.1,0.1s0,0,0,0
	C8.5,16.4,8.5,16.4,8.4,16.3z"/>
<path id="Path_2950" class="st5" d="M7.4,9.8L7.4,9.8C7.4,9.8,7.4,9.8,7.4,9.8C7.4,9.8,7.4,9.8,7.4,9.8c0.1,0,0.3,0,0.4,0
	c-0.1,0-0.2,0-0.2,0C7.5,9.8,7.5,9.8,7.4,9.8L7.4,9.8z"/>
<path id="Path_2951" class="st5" d="M7.4,14.6L7.4,14.6L7.4,14.6L7.4,14.6z"/>
<path id="Path_2952" class="st5" d="M7.1,13.7L7.1,13.7C7.1,13.7,7.1,13.7,7.1,13.7C7.1,13.7,7.1,13.7,7.1,13.7z"/>
<path id="Path_2953" class="st5" d="M9.1,16.9C9.1,16.9,9.1,16.9,9.1,16.9C9.1,17,9.2,17,9.1,16.9L9.1,16.9z"/>
<path id="Path_2954" class="st5" d="M10.4,17.6c0,0,0.1,0,0.1,0c-0.1,0-0.1,0-0.2-0.1C10.3,17.6,10.3,17.6,10.4,17.6z"/>
<path id="Path_2955" class="st5" d="M10.3,17.6c0.1,0,0.1,0,0.2,0.1l0,0C10.4,17.6,10.3,17.6,10.3,17.6L10.3,17.6z"/>
<path id="Path_2956" class="st5" d="M7,10.5C7,10.5,7,10.5,7,10.5v1.7v0V10.5z"/>
<path id="Path_2957" class="st5" d="M7,10.5v1.7C7,11.6,7.1,11.1,7,10.5z"/>
<g id="Group_1303">
	<ellipse id="Ellipse_527" class="st7" cx="16.1" cy="11.6" rx="0.2" ry="0.2"/>
	<ellipse id="Ellipse_528" class="st7" cx="16.1" cy="13.8" rx="0.2" ry="0.2"/>
	<ellipse id="Ellipse_529" class="st7" cx="14.3" cy="13.5" rx="0.4" ry="0.4"/>
	<ellipse id="Ellipse_530" class="st7" cx="16.1" cy="12.7" rx="0.3" ry="0.3"/>
	<ellipse id="Ellipse_531" class="st7" cx="15.3" cy="13.4" rx="0.3" ry="0.3"/>
	<circle id="Ellipse_532" class="st7" cx="15.6" cy="14.2" r="0.2"/>
	<ellipse id="Ellipse_533" class="st7" cx="14.9" cy="12.6" rx="0.2" ry="0.2"/>
	<ellipse id="Ellipse_534" class="st7" cx="14.7" cy="11.9" rx="0.3" ry="0.3"/>
	<ellipse id="Ellipse_535" class="st7" cx="14.6" cy="14.7" rx="0.3" ry="0.3"/>
	<circle id="Ellipse_536" class="st7" cx="13.7" cy="14.2" r="0.2"/>
	<circle id="Ellipse_537" class="st7" cx="15.6" cy="12.1" r="0.2"/>
	<ellipse id="Ellipse_538" class="st7" cx="15.6" cy="15.1" rx="0.2" ry="0.2"/>
	<circle id="Ellipse_539" class="st7" cx="14.6" cy="15.5" r="0.2"/>
</g>
<g id="Group_1304">
	<ellipse id="Ellipse_540" class="st7" cx="7.8" cy="11.6" rx="0.2" ry="0.2"/>
	<ellipse id="Ellipse_541" class="st7" cx="7.8" cy="13.8" rx="0.2" ry="0.2"/>
	<ellipse id="Ellipse_542" class="st7" cx="9.7" cy="13.5" rx="0.4" ry="0.4"/>
	<ellipse id="Ellipse_543" class="st7" cx="7.9" cy="12.7" rx="0.3" ry="0.3"/>
	<ellipse id="Ellipse_544" class="st7" cx="8.7" cy="13.4" rx="0.3" ry="0.3"/>
	<circle id="Ellipse_545" class="st7" cx="8.4" cy="14.2" r="0.2"/>
	<ellipse id="Ellipse_546" class="st7" cx="9.1" cy="12.7" rx="0.2" ry="0.2"/>
	<ellipse id="Ellipse_547" class="st7" cx="9.3" cy="11.9" rx="0.3" ry="0.3"/>
	<ellipse id="Ellipse_548" class="st7" cx="9.4" cy="14.7" rx="0.3" ry="0.3"/>
	<circle id="Ellipse_549" class="st7" cx="10.3" cy="14.2" r="0.2"/>
	<circle id="Ellipse_550" class="st7" cx="8.4" cy="12.1" r="0.2"/>
	<ellipse id="Ellipse_551" class="st7" cx="8.4" cy="15.1" rx="0.2" ry="0.2"/>
	<circle id="Ellipse_552" class="st7" cx="9.4" cy="15.5" r="0.2"/>
</g>
<rect id="Rectangle_1255" class="st2" width="24" height="24"/>
</svg>
