<?xml version="1.0" encoding="utf-8"?>
<!-- Generator: Adobe Illustrator 27.3.1, SVG Export Plug-In . SVG Version: 6.00 Build 0)  -->
<svg version="1.1" id="ENT" xmlns="http://www.w3.org/2000/svg" xmlns:xlink="http://www.w3.org/1999/xlink" x="0px" y="0px"
	 viewBox="0 0 24 24" style="enable-background:new 0 0 24 24;" xml:space="preserve">
<style type="text/css">
	.st0{opacity:0.15;fill:#9473A5;}
	.st1{fill:#9473A5;}
	.st2{opacity:0.3;fill:#FFFFFF;}
	.st3{opacity:0.6;fill:#FFFFFF;}
	.st4{fill:#FC997D;}
	.st5{fill:#EB866C;}
	.st6{fill:none;}
</style>
<circle id="Ellipse_703" class="st0" cx="10" cy="10" r="10"/>
<path id="Path_2825" class="st1" d="M6,8.6c0,0,0.1-5.6,5.3-6.5S18,6.6,18,10.4s-3.9,6.5-5.5,9.6c-0.8,1.7-2.7,2.5-4.5,1.7
	C7.5,21.4,7,21,6.6,20.5C5.8,18.8,6,8.6,6,8.6L6,8.6z"/>
<path id="Path_2826" class="st2" d="M12,3.4c-1.6,0-3,1.1-3.4,2.6c-0.2,0.6-0.3,1.3-0.1,2c0-0.1,0-0.2,0-0.3
	c0.8,0.8,1.8,1.3,2.9,1.4c0.5,0.1,1,0.4,1.3,0.9c0.2,0.4,0.3,0.9,0.3,1.4c0,0,0,0.1,0,0.1c0,0.2,0,0.4-0.1,0.6c0,0.1,0,0.1,0,0.1
	c0,0.1,0,0.1-0.1,0.1c-0.3,0.5-0.8,0.8-1.4,0.8c-0.6,0-1.1-0.3-1.4-0.9l-0.1,0c-0.6,0.9-1.8,0.7-1.8,2.1c0,0.9,0.2,2.2,1.7,2.2
	c3.8,0,6.2-4.6,6.2-6.9C16,7.1,14.8,3.4,12,3.4z"/>
<path id="Path_2827" class="st3" d="M11.7,2c3.8,0.4,5.1,5,5.1,8.3c0,3.8-3.9,6.5-5.5,9.6c-0.5,1-1.4,1.8-2.5,2
	c1.5,0.3,3.1-0.5,3.7-2c1-1.9,2.6-3.4,3.8-5.2c1.3-1.7,1.8-3.8,1.6-5.9C17.6,5.4,15.7,1.6,11.7,2z"/>
<path id="Path_2828" class="st3" d="M12,3.4c-0.2,0-0.4,0-0.6,0.1c2.4,0.5,3.5,3.8,3.5,6.3c0,2.1-2.1,6.3-5.6,6.8
	c0.2,0,0.3,0.1,0.5,0.1c3.9,0,6.3-4.6,6.3-6.9C16,7.1,14.8,3.4,12,3.4z"/>
<path id="Path_2829" class="st4" d="M8.5,8.2c0,0,0-0.1,0-0.1C8.5,8.1,8.5,8.1,8.5,8.2z"/>
<path id="Path_2830" class="st4" d="M8.5,8.3c0,0,0-0.1,0-0.1C8.5,8.2,8.5,8.3,8.5,8.3z"/>
<path id="Path_2831" class="st4" d="M8.5,8.3c0.1,0.2,0.1,0.3,0.2,0.5l0,0C8.6,8.6,8.6,8.5,8.5,8.3z"/>
<path id="Path_2832" class="st5" d="M8.5,8.1L8.5,8.1L8.5,8.1z"/>
<path id="Path_2833" class="st5" d="M8.5,8.3L8.5,8.3z"/>
<path id="Path_2834" class="st5" d="M8.5,8.2L8.5,8.2L8.5,8.2z"/>
<path id="Path_2835" class="st3" d="M11.4,13.3c0.6,0,1.1-0.3,1.4-0.8c0,0,0.1-0.1,0.1-0.1c0,0,0,0,0-0.1C13,12,13,11.8,13,11.7
	c0,0,0-0.1,0-0.1c0-0.5-0.1-1-0.3-1.4c-0.3-0.5-0.8-0.8-1.3-0.9c-1.1-0.1-2.2-0.6-3-1.4c0,0.1,0,0.2,0.1,0.3l0,0c0,0,0,0.1,0,0.1
	l0,0c0,0,0,0.1,0,0.1l0,0c0.1,0.2,0.1,0.3,0.2,0.5l0,0c0.6,1.3,1.7,2.2,1.4,3.1l0,0c-0.1,0.2-0.1,0.3-0.2,0.5l0.1,0
	C10.3,13,10.8,13.3,11.4,13.3z"/>
<rect id="Rectangle_1258" class="st6" width="24" height="24"/>
</svg>
