<?xml version="1.0" encoding="utf-8"?>
<!-- Generator: Adobe Illustrator 27.3.1, SVG Export Plug-In . SVG Version: 6.00 Build 0)  -->
<svg version="1.1" id="General_Surgery" xmlns="http://www.w3.org/2000/svg" xmlns:xlink="http://www.w3.org/1999/xlink" x="0px"
	 y="0px" viewBox="0 0 24 24" style="enable-background:new 0 0 24 24;" xml:space="preserve">
<style type="text/css">
	.st0{opacity:0.15;fill:#9473A5;}
	.st1{fill:none;}
	.st2{fill:#AA87B9;}
	.st3{opacity:0.5;fill:#9473A5;}
	.st4{fill:#9473A5;}
	.st5{fill:#FFFFFF;}
	.st6{opacity:0.7;fill:#FFFFFF;}
</style>
<circle id="Ellipse_750" class="st0" cx="10" cy="10" r="10"/>
<rect id="Rectangle_1445" class="st1" width="24" height="24"/>
<path id="Path_5431" class="st2" d="M18.8,5c-0.8-0.6-1.8-1-2.9-1h-5.1c-0.5,0-1,0.2-1.3,0.7l-1.2,2C8.2,7.1,8.3,7.6,8.7,7.9
	C8.8,7.9,9,8,9.1,8l0,0c0.3,0,0.5-0.1,0.7-0.4l1-1.6h3.8c0.4,0,0.7,0.3,0.7,0.6c0,0.4-0.3,0.7-0.6,0.7h-2.2c-0.7,0-1.3,0.6-1.3,1.3
	c0,0.7,0.5,1.3,1.2,1.3h8V6L18.8,5z"/>
<g id="Group_4551">
	<path id="Path_5443" class="st3" d="M6,13.2l1.6-0.3c1.1-0.2,2.4-0.7,2.7-3.2l0.6-0.9L9.6,7.9L6,13.2z"/>
	<path id="Path_5444" class="st4" d="M9.6,7.9l1.2,0.8c0.4,0.2,0.9,0.1,1.2-0.2l0,0l3.1-4.7c0.3-0.5,0.2-1.2-0.3-1.5l-0.1,0l0,0
		c-0.5-0.3-1.3-0.2-1.6,0.3L9.6,7.9z"/>
	<path id="Path_5445" class="st5" d="M10.1,7.1l3.2-0.6l0.6-0.9l-3.2,0.6L10.1,7.1z"/>
</g>
<path id="Rectangle_1446" class="st2" d="M13.2,10h-0.8C11.6,10,11,9.4,11,8.7v0c0-0.7,0.6-1.3,1.3-1.3h0.8l0,0V10L13.2,10z"/>
<path id="Path_5888" class="st4" d="M22,22c-1.5-4.3-5.4-6.7-10-6.7l0,0c-4.6,0-8.5,2.4-10,6.7H22z"/>
<rect id="Rectangle_1447" x="20.4" y="5.4" class="st4" width="1.6" height="5.1"/>
<path id="Path_5889" class="st6" d="M19.6,20c-1.1-3-4.1-4.7-7.6-4.7l0,0c-3.5,0-6.5,1.7-7.6,4.7H19.6z"/>
<g id="Group_4315">
	<path id="Path_5436" class="st5" d="M7.6,17.7h0.9v0.5H7.6V17.7z"/>
	<path id="Path_5437" class="st5" d="M9,17.7h0.9v0.5H9V17.7z"/>
	<path id="Path_5438" class="st5" d="M10.3,17.7h0.9v0.5h-0.9V17.7z"/>
	<path id="Path_5439" class="st5" d="M11.7,17.7h0.9v0.5h-0.9V17.7z"/>
	<path id="Path_5440" class="st5" d="M13,17.7h0.9v0.5H13V17.7z"/>
	<path id="Path_5441" class="st5" d="M14.4,17.7h0.9v0.5h-0.9V17.7z"/>
	<path id="Path_5442" class="st5" d="M15.7,17.7h0.9v0.5h-0.9V17.7z"/>
</g>
</svg>
